solid top
facet normal -0.0 -0.0 1.0
  outer loop
    vertex 0.0 0.0 3.0
    vertex 2.199999999999998 2.199999999999996 3.0
    vertex 0.0 73.22 3.0
  endloop
endfacet
facet normal -0.0 -0.0 1.0
  outer loop
    vertex 2.199999999999998 2.199999999999996 3.0
    vertex 0.0 0.0 3.0
    vertex 85.0 0.0 3.0
  endloop
endfacet
facet normal -0.0 -0.0 1.0
  outer loop
    vertex 2.199999999999998 2.199999999999996 3.0
    vertex 85.0 0.0 3.0
    vertex 82.80000000000001 2.200000000000001 3.0
  endloop
endfacet
facet normal -0.0 -0.0 1.0
  outer loop
    vertex 82.80000000000001 2.200000000000001 3.0
    vertex 85.0 0.0 3.0
    vertex 82.80000000000001 71.02 3.0
  endloop
endfacet
facet normal -0.0 -0.0 1.0
  outer loop
    vertex 0.0 73.22 3.0
    vertex 2.199999999999998 71.02 3.0
    vertex 85.0 73.22 3.0
  endloop
endfacet
facet normal -0.0 -0.0 1.0
  outer loop
    vertex 2.199999999999998 71.02 3.0
    vertex 0.0 73.22 3.0
    vertex 2.199999999999998 2.199999999999996 3.0
  endloop
endfacet
facet normal -0.0 -0.0 1.0
  outer loop
    vertex 85.0 73.22 3.0
    vertex 2.199999999999998 71.02 3.0
    vertex 82.80000000000001 71.02 3.0
  endloop
endfacet
facet normal -0.0 -0.0 1.0
  outer loop
    vertex 85.0 73.22 3.0
    vertex 82.80000000000001 71.02 3.0
    vertex 85.0 0.0 3.0
  endloop
endfacet
facet normal -1.0 0.0 0.0
  outer loop
    vertex 0.0 73.22 3.0
    vertex 0.0 0.0 0.0
    vertex 0.0 0.0 3.0
  endloop
endfacet
facet normal -1.0 0.0 0.0
  outer loop
    vertex 0.0 0.0 0.0
    vertex 0.0 73.22 3.0
    vertex 0.0 73.22 0.0
  endloop
endfacet
facet normal -0.0 1.0 0.0
  outer loop
    vertex 0.0 73.22 3.0
    vertex 85.0 73.22 0.0
    vertex 0.0 73.22 0.0
  endloop
endfacet
facet normal -0.0 1.0 0.0
  outer loop
    vertex 85.0 73.22 0.0
    vertex 0.0 73.22 3.0
    vertex 85.0 73.22 3.0
  endloop
endfacet
facet normal 1.0 0.0 0.0
  outer loop
    vertex 85.0 73.22 0.0
    vertex 85.0 0.0 3.0
    vertex 85.0 0.0 0.0
  endloop
endfacet
facet normal 1.0 0.0 0.0
  outer loop
    vertex 85.0 0.0 3.0
    vertex 85.0 73.22 0.0
    vertex 85.0 73.22 3.0
  endloop
endfacet
facet normal -0.0 -1.0 -0.0
  outer loop
    vertex 85.0 0.0 3.0
    vertex 0.0 0.0 0.0
    vertex 85.0 0.0 0.0
  endloop
endfacet
facet normal -0.0 -1.0 -0.0
  outer loop
    vertex 0.0 0.0 0.0
    vertex 85.0 0.0 3.0
    vertex 0.0 0.0 3.0
  endloop
endfacet
facet normal -0.0 -0.0 1.0
  outer loop
    vertex 5.2 5.200000000000002 3.0
    vertex 39.95441558772844 34.06441558772843 3.0
    vertex 5.2 68.02 3.0
  endloop
endfacet
facet normal -0.0 -0.0 1.0
  outer loop
    vertex 39.95441558772844 34.06441558772843 3.0
    vertex 5.2 5.200000000000002 3.0
    vertex 40.70000000000001 33.49230854637602 3.0
  endloop
endfacet
facet normal -0.0 -0.0 1.0
  outer loop
    vertex 40.70000000000001 33.49230854637602 3.0
    vertex 5.2 5.200000000000002 3.0
    vertex 79.80000000000001 5.200000000000001 3.0
  endloop
endfacet
facet normal -0.0 -0.0 1.0
  outer loop
    vertex 5.2 68.02 3.0
    vertex 39.95441558772844 34.06441558772843 3.0
    vertex 39.382308546376024 34.809999999999995 3.0
  endloop
endfacet
facet normal -0.0 -0.0 1.0
  outer loop
    vertex 5.2 68.02 3.0
    vertex 39.382308546376024 34.809999999999995 3.0
    vertex 39.02266702535936 35.67825143763092 3.0
  endloop
endfacet
facet normal -0.0 -0.0 1.0
  outer loop
    vertex 5.2 68.02 3.0
    vertex 39.02266702535936 35.67825143763092 3.0
    vertex 38.900000000000006 36.61 3.0
  endloop
endfacet
facet normal -0.0 -0.0 1.0
  outer loop
    vertex 40.70000000000001 33.49230854637602 3.0
    vertex 79.80000000000001 5.200000000000001 3.0
    vertex 41.568251437630934 33.13266702535935 3.0
  endloop
endfacet
facet normal -0.0 -0.0 1.0
  outer loop
    vertex 41.568251437630934 33.13266702535935 3.0
    vertex 79.80000000000001 5.200000000000001 3.0
    vertex 42.50000000000001 33.01 3.0
  endloop
endfacet
facet normal -0.0 -0.0 1.0
  outer loop
    vertex 42.50000000000001 33.01 3.0
    vertex 79.80000000000001 5.200000000000001 3.0
    vertex 43.43174856236909 33.13266702535935 3.0
  endloop
endfacet
facet normal -0.0 -0.0 1.0
  outer loop
    vertex 43.43174856236909 33.13266702535935 3.0
    vertex 79.80000000000001 5.200000000000001 3.0
    vertex 44.30000000000001 33.49230854637602 3.0
  endloop
endfacet
facet normal -0.0 -0.0 1.0
  outer loop
    vertex 44.30000000000001 33.49230854637602 3.0
    vertex 79.80000000000001 5.200000000000001 3.0
    vertex 45.04558441227157 34.06441558772843 3.0
  endloop
endfacet
facet normal -0.0 -0.0 1.0
  outer loop
    vertex 45.04558441227157 34.06441558772843 3.0
    vertex 79.80000000000001 5.200000000000001 3.0
    vertex 45.61769145362398 34.81 3.0
  endloop
endfacet
facet normal -0.0 -0.0 1.0
  outer loop
    vertex 45.61769145362398 34.81 3.0
    vertex 79.80000000000001 5.200000000000001 3.0
    vertex 45.97733297464065 35.67825143763093 3.0
  endloop
endfacet
facet normal -0.0 -0.0 1.0
  outer loop
    vertex 45.97733297464065 35.67825143763093 3.0
    vertex 79.80000000000001 5.200000000000001 3.0
    vertex 46.10000000000001 36.61 3.0
  endloop
endfacet
facet normal -0.0 -0.0 1.0
  outer loop
    vertex 5.2 68.02 3.0
    vertex 40.7 39.727691453623976 3.0
    vertex 79.80000000000001 68.02 3.0
  endloop
endfacet
facet normal -0.0 -0.0 1.0
  outer loop
    vertex 40.7 39.727691453623976 3.0
    vertex 5.2 68.02 3.0
    vertex 39.95441558772844 39.155584412271565 3.0
  endloop
endfacet
facet normal -0.0 -0.0 1.0
  outer loop
    vertex 39.95441558772844 39.155584412271565 3.0
    vertex 5.2 68.02 3.0
    vertex 39.382308546376024 38.41 3.0
  endloop
endfacet
facet normal -0.0 -0.0 1.0
  outer loop
    vertex 39.382308546376024 38.41 3.0
    vertex 5.2 68.02 3.0
    vertex 39.02266702535936 37.54174856236907 3.0
  endloop
endfacet
facet normal -0.0 -0.0 1.0
  outer loop
    vertex 39.02266702535936 37.54174856236907 3.0
    vertex 5.2 68.02 3.0
    vertex 38.900000000000006 36.61 3.0
  endloop
endfacet
facet normal -0.0 -0.0 1.0
  outer loop
    vertex 79.80000000000001 68.02 3.0
    vertex 40.7 39.727691453623976 3.0
    vertex 41.56825143763093 40.087332974640645 3.0
  endloop
endfacet
facet normal -0.0 -0.0 1.0
  outer loop
    vertex 79.80000000000001 68.02 3.0
    vertex 41.56825143763093 40.087332974640645 3.0
    vertex 42.50000000000001 40.21 3.0
  endloop
endfacet
facet normal -0.0 -0.0 1.0
  outer loop
    vertex 79.80000000000001 68.02 3.0
    vertex 42.50000000000001 40.21 3.0
    vertex 43.43174856236908 40.087332974640645 3.0
  endloop
endfacet
facet normal -0.0 -0.0 1.0
  outer loop
    vertex 79.80000000000001 68.02 3.0
    vertex 43.43174856236908 40.087332974640645 3.0
    vertex 44.300000000000004 39.727691453623976 3.0
  endloop
endfacet
facet normal -0.0 -0.0 1.0
  outer loop
    vertex 79.80000000000001 68.02 3.0
    vertex 44.300000000000004 39.727691453623976 3.0
    vertex 45.04558441227157 39.15558441227157 3.0
  endloop
endfacet
facet normal -0.0 -0.0 1.0
  outer loop
    vertex 79.80000000000001 68.02 3.0
    vertex 45.04558441227157 39.15558441227157 3.0
    vertex 45.61769145362398 38.410000000000004 3.0
  endloop
endfacet
facet normal -0.0 -0.0 1.0
  outer loop
    vertex 79.80000000000001 68.02 3.0
    vertex 45.61769145362398 38.410000000000004 3.0
    vertex 45.97733297464065 37.54174856236908 3.0
  endloop
endfacet
facet normal -0.0 -0.0 1.0
  outer loop
    vertex 79.80000000000001 68.02 3.0
    vertex 45.97733297464065 37.54174856236908 3.0
    vertex 46.10000000000001 36.61 3.0
  endloop
endfacet
facet normal -0.0 -0.0 1.0
  outer loop
    vertex 79.80000000000001 68.02 3.0
    vertex 46.10000000000001 36.61 3.0
    vertex 79.80000000000001 5.200000000000001 3.0
  endloop
endfacet
facet normal 0.0 0.0 1.0
  outer loop
    vertex 2.199999999999998 2.199999999999996 7.0
    vertex 5.2 5.200000000000002 7.0
    vertex 2.199999999999998 71.02 7.0
  endloop
endfacet
facet normal 0.0 0.0 1.0
  outer loop
    vertex 5.2 5.200000000000002 7.0
    vertex 2.199999999999998 2.199999999999996 7.0
    vertex 82.80000000000001 2.200000000000001 7.0
  endloop
endfacet
facet normal 0.0 0.0 1.0
  outer loop
    vertex 5.2 5.200000000000002 7.0
    vertex 82.80000000000001 2.200000000000001 7.0
    vertex 79.80000000000001 5.200000000000001 7.0
  endloop
endfacet
facet normal 0.0 0.0 1.0
  outer loop
    vertex 79.80000000000001 5.200000000000001 7.0
    vertex 82.80000000000001 2.200000000000001 7.0
    vertex 79.80000000000001 68.02 7.0
  endloop
endfacet
facet normal 0.0 0.0 1.0
  outer loop
    vertex 2.199999999999998 71.02 7.0
    vertex 5.2 68.02 7.0
    vertex 82.80000000000001 71.02 7.0
  endloop
endfacet
facet normal 0.0 0.0 1.0
  outer loop
    vertex 5.2 68.02 7.0
    vertex 2.199999999999998 71.02 7.0
    vertex 5.2 5.200000000000002 7.0
  endloop
endfacet
facet normal 0.0 0.0 1.0
  outer loop
    vertex 82.80000000000001 71.02 7.0
    vertex 5.2 68.02 7.0
    vertex 79.80000000000001 68.02 7.0
  endloop
endfacet
facet normal 0.0 0.0 1.0
  outer loop
    vertex 82.80000000000001 71.02 7.0
    vertex 79.80000000000001 68.02 7.0
    vertex 82.80000000000001 2.200000000000001 7.0
  endloop
endfacet
facet normal 0.0 1.0 0.0
  outer loop
    vertex 2.199999999999998 71.02 7.0
    vertex 82.80000000000001 71.02 3.0
    vertex 2.199999999999998 71.02 3.0
  endloop
endfacet
facet normal 0.0 1.0 0.0
  outer loop
    vertex 82.80000000000001 71.02 3.0
    vertex 2.199999999999998 71.02 7.0
    vertex 82.80000000000001 71.02 7.0
  endloop
endfacet
facet normal -1.0 -0.0 -0.0
  outer loop
    vertex 2.199999999999998 71.02 7.0
    vertex 2.199999999999998 2.199999999999996 3.0
    vertex 2.199999999999998 2.199999999999996 7.0
  endloop
endfacet
facet normal -1.0 -0.0 -0.0
  outer loop
    vertex 2.199999999999998 2.199999999999996 3.0
    vertex 2.199999999999998 71.02 7.0
    vertex 2.199999999999998 71.02 3.0
  endloop
endfacet
facet normal 6.122756010494815e-17 -1.0 0.0
  outer loop
    vertex 82.80000000000001 2.200000000000001 7.0
    vertex 2.199999999999998 2.199999999999996 3.0
    vertex 82.80000000000001 2.200000000000001 3.0
  endloop
endfacet
facet normal 6.122756010494815e-17 -1.0 0.0
  outer loop
    vertex 2.199999999999998 2.199999999999996 3.0
    vertex 82.80000000000001 2.200000000000001 7.0
    vertex 2.199999999999998 2.199999999999996 7.0
  endloop
endfacet
facet normal 1.0 -0.0 0.0
  outer loop
    vertex 82.80000000000001 71.02 3.0
    vertex 82.80000000000001 2.200000000000001 7.0
    vertex 82.80000000000001 2.200000000000001 3.0
  endloop
endfacet
facet normal 1.0 -0.0 0.0
  outer loop
    vertex 82.80000000000001 2.200000000000001 7.0
    vertex 82.80000000000001 71.02 3.0
    vertex 82.80000000000001 71.02 7.0
  endloop
endfacet
facet normal 0.0 -1.0 0.0
  outer loop
    vertex 79.80000000000001 68.02 7.0
    vertex 5.2 68.02 3.0
    vertex 79.80000000000001 68.02 3.0
  endloop
endfacet
facet normal 0.0 -1.0 0.0
  outer loop
    vertex 5.2 68.02 3.0
    vertex 79.80000000000001 68.02 7.0
    vertex 5.2 68.02 7.0
  endloop
endfacet
facet normal -1.0 -0.0 -0.0
  outer loop
    vertex 79.80000000000001 68.02 7.0
    vertex 79.80000000000001 5.200000000000001 3.0
    vertex 79.80000000000001 5.200000000000001 7.0
  endloop
endfacet
facet normal -1.0 -0.0 -0.0
  outer loop
    vertex 79.80000000000001 5.200000000000001 3.0
    vertex 79.80000000000001 68.02 7.0
    vertex 79.80000000000001 68.02 3.0
  endloop
endfacet
facet normal 9.450289820870969e-18 1.0 0.0
  outer loop
    vertex 5.2 5.200000000000002 7.0
    vertex 79.80000000000001 5.200000000000001 3.0
    vertex 5.2 5.200000000000002 3.0
  endloop
endfacet
facet normal 9.450289820870969e-18 1.0 0.0
  outer loop
    vertex 79.80000000000001 5.200000000000001 3.0
    vertex 5.2 5.200000000000002 7.0
    vertex 79.80000000000001 5.200000000000001 7.0
  endloop
endfacet
facet normal 1.0 -0.0 0.0
  outer loop
    vertex 5.2 68.02 3.0
    vertex 5.2 5.200000000000002 7.0
    vertex 5.2 5.200000000000002 3.0
  endloop
endfacet
facet normal 1.0 -0.0 0.0
  outer loop
    vertex 5.2 5.200000000000002 7.0
    vertex 5.2 68.02 3.0
    vertex 5.2 68.02 7.0
  endloop
endfacet
facet normal 0.0 0.0 -1.0
  outer loop
    vertex 0.0 73.22 0.0
    vertex 39.95441558772844 39.155584412271565 0.0
    vertex 0.0 0.0 0.0
  endloop
endfacet
facet normal 0.0 0.0 -1.0
  outer loop
    vertex 39.95441558772844 39.155584412271565 0.0
    vertex 0.0 73.22 0.0
    vertex 40.7 39.727691453623976 0.0
  endloop
endfacet
facet normal 0.0 0.0 -1.0
  outer loop
    vertex 40.7 39.727691453623976 0.0
    vertex 0.0 73.22 0.0
    vertex 85.0 73.22 0.0
  endloop
endfacet
facet normal 0.0 0.0 -1.0
  outer loop
    vertex 0.0 0.0 0.0
    vertex 39.95441558772844 39.155584412271565 0.0
    vertex 39.382308546376024 38.41 0.0
  endloop
endfacet
facet normal 0.0 0.0 -1.0
  outer loop
    vertex 0.0 0.0 0.0
    vertex 39.382308546376024 38.41 0.0
    vertex 39.02266702535936 37.54174856236907 0.0
  endloop
endfacet
facet normal 0.0 0.0 -1.0
  outer loop
    vertex 0.0 0.0 0.0
    vertex 39.02266702535936 37.54174856236907 0.0
    vertex 38.900000000000006 36.61 0.0
  endloop
endfacet
facet normal 0.0 0.0 -1.0
  outer loop
    vertex 40.7 39.727691453623976 0.0
    vertex 85.0 73.22 0.0
    vertex 41.56825143763093 40.087332974640645 0.0
  endloop
endfacet
facet normal 0.0 0.0 -1.0
  outer loop
    vertex 41.56825143763093 40.087332974640645 0.0
    vertex 85.0 73.22 0.0
    vertex 42.50000000000001 40.21 0.0
  endloop
endfacet
facet normal 0.0 0.0 -1.0
  outer loop
    vertex 42.50000000000001 40.21 0.0
    vertex 85.0 73.22 0.0
    vertex 43.43174856236908 40.087332974640645 0.0
  endloop
endfacet
facet normal 0.0 0.0 -1.0
  outer loop
    vertex 43.43174856236908 40.087332974640645 0.0
    vertex 85.0 73.22 0.0
    vertex 44.300000000000004 39.727691453623976 0.0
  endloop
endfacet
facet normal 0.0 0.0 -1.0
  outer loop
    vertex 44.300000000000004 39.727691453623976 0.0
    vertex 85.0 73.22 0.0
    vertex 45.04558441227157 39.15558441227157 0.0
  endloop
endfacet
facet normal 0.0 0.0 -1.0
  outer loop
    vertex 45.04558441227157 39.15558441227157 0.0
    vertex 85.0 73.22 0.0
    vertex 45.61769145362398 38.410000000000004 0.0
  endloop
endfacet
facet normal 0.0 0.0 -1.0
  outer loop
    vertex 45.61769145362398 38.410000000000004 0.0
    vertex 85.0 73.22 0.0
    vertex 45.97733297464065 37.54174856236908 0.0
  endloop
endfacet
facet normal 0.0 0.0 -1.0
  outer loop
    vertex 45.97733297464065 37.54174856236908 0.0
    vertex 85.0 73.22 0.0
    vertex 46.10000000000001 36.61 0.0
  endloop
endfacet
facet normal 0.0 0.0 -1.0
  outer loop
    vertex 0.0 0.0 0.0
    vertex 40.70000000000001 33.49230854637602 0.0
    vertex 85.0 0.0 0.0
  endloop
endfacet
facet normal 0.0 0.0 -1.0
  outer loop
    vertex 40.70000000000001 33.49230854637602 0.0
    vertex 0.0 0.0 0.0
    vertex 39.95441558772844 34.06441558772843 0.0
  endloop
endfacet
facet normal 0.0 0.0 -1.0
  outer loop
    vertex 39.95441558772844 34.06441558772843 0.0
    vertex 0.0 0.0 0.0
    vertex 39.382308546376024 34.809999999999995 0.0
  endloop
endfacet
facet normal 0.0 0.0 -1.0
  outer loop
    vertex 39.382308546376024 34.809999999999995 0.0
    vertex 0.0 0.0 0.0
    vertex 39.02266702535936 35.67825143763092 0.0
  endloop
endfacet
facet normal 0.0 0.0 -1.0
  outer loop
    vertex 39.02266702535936 35.67825143763092 0.0
    vertex 0.0 0.0 0.0
    vertex 38.900000000000006 36.61 0.0
  endloop
endfacet
facet normal 0.0 0.0 -1.0
  outer loop
    vertex 85.0 0.0 0.0
    vertex 40.70000000000001 33.49230854637602 0.0
    vertex 41.568251437630934 33.13266702535935 0.0
  endloop
endfacet
facet normal 0.0 0.0 -1.0
  outer loop
    vertex 85.0 0.0 0.0
    vertex 41.568251437630934 33.13266702535935 0.0
    vertex 42.50000000000001 33.01 0.0
  endloop
endfacet
facet normal 0.0 0.0 -1.0
  outer loop
    vertex 85.0 0.0 0.0
    vertex 42.50000000000001 33.01 0.0
    vertex 43.43174856236909 33.13266702535935 0.0
  endloop
endfacet
facet normal 0.0 0.0 -1.0
  outer loop
    vertex 85.0 0.0 0.0
    vertex 43.43174856236909 33.13266702535935 0.0
    vertex 44.30000000000001 33.49230854637602 0.0
  endloop
endfacet
facet normal 0.0 0.0 -1.0
  outer loop
    vertex 85.0 0.0 0.0
    vertex 44.30000000000001 33.49230854637602 0.0
    vertex 45.04558441227157 34.06441558772843 0.0
  endloop
endfacet
facet normal 0.0 0.0 -1.0
  outer loop
    vertex 85.0 0.0 0.0
    vertex 45.04558441227157 34.06441558772843 0.0
    vertex 45.61769145362398 34.81 0.0
  endloop
endfacet
facet normal 0.0 0.0 -1.0
  outer loop
    vertex 85.0 0.0 0.0
    vertex 45.61769145362398 34.81 0.0
    vertex 45.97733297464065 35.67825143763093 0.0
  endloop
endfacet
facet normal 0.0 0.0 -1.0
  outer loop
    vertex 85.0 0.0 0.0
    vertex 45.97733297464065 35.67825143763093 0.0
    vertex 46.10000000000001 36.61 0.0
  endloop
endfacet
facet normal 0.0 0.0 -1.0
  outer loop
    vertex 85.0 0.0 0.0
    vertex 46.10000000000001 36.61 0.0
    vertex 85.0 73.22 0.0
  endloop
endfacet
facet normal -0.13052619222005096 -0.9914448613738105 -1.1999393739580993e-32
  outer loop
    vertex 43.43174856236908 40.087332974640645 3.0
    vertex 42.50000000000001 40.21 0.0
    vertex 43.43174856236908 40.087332974640645 0.0
  endloop
endfacet
facet normal -0.13052619222005096 -0.9914448613738105 -1.1999393739580993e-32
  outer loop
    vertex 42.50000000000001 40.21 0.0
    vertex 43.43174856236908 40.087332974640645 3.0
    vertex 42.50000000000001 40.21 3.0
  endloop
endfacet
facet normal 0.1305261922200502 -0.9914448613738107 -3.8696199724430115e-32
  outer loop
    vertex 42.50000000000001 40.21 3.0
    vertex 41.56825143763093 40.087332974640645 0.0
    vertex 42.50000000000001 40.21 0.0
  endloop
endfacet
facet normal 0.1305261922200502 -0.9914448613738107 -3.8696199724430115e-32
  outer loop
    vertex 41.56825143763093 40.087332974640645 0.0
    vertex 42.50000000000001 40.21 3.0
    vertex 41.56825143763093 40.087332974640645 3.0
  endloop
endfacet
facet normal 0.3826834323650892 -0.923879532511287 -6.275592364655324e-32
  outer loop
    vertex 41.56825143763093 40.087332974640645 3.0
    vertex 40.7 39.727691453623976 0.0
    vertex 41.56825143763093 40.087332974640645 0.0
  endloop
endfacet
facet normal 0.3826834323650892 -0.923879532511287 -6.275592364655324e-32
  outer loop
    vertex 40.7 39.727691453623976 0.0
    vertex 41.56825143763093 40.087332974640645 3.0
    vertex 40.7 39.727691453623976 3.0
  endloop
endfacet
facet normal 0.6087614290087255 -0.7933533402912315 -8.253893508123148e-32
  outer loop
    vertex 40.7 39.727691453623976 3.0
    vertex 39.95441558772844 39.155584412271565 0.0
    vertex 40.7 39.727691453623976 0.0
  endloop
endfacet
facet normal 0.6087614290087255 -0.7933533402912315 -8.253893508123148e-32
  outer loop
    vertex 39.95441558772844 39.155584412271565 0.0
    vertex 40.7 39.727691453623976 3.0
    vertex 39.95441558772844 39.155584412271565 3.0
  endloop
endfacet
facet normal 0.7933533402912338 -0.6087614290087227 -9.669705449216242e-32
  outer loop
    vertex 39.95441558772844 39.155584412271565 0.0
    vertex 39.382308546376024 38.41 3.0
    vertex 39.382308546376024 38.41 0.0
  endloop
endfacet
facet normal 0.7933533402912338 -0.6087614290087227 -9.669705449216242e-32
  outer loop
    vertex 39.382308546376024 38.41 3.0
    vertex 39.95441558772844 39.155584412271565 0.0
    vertex 39.95441558772844 39.155584412271565 3.0
  endloop
endfacet
facet normal 0.923879532511287 -0.3826834323650892 -1.0426542943889118e-31
  outer loop
    vertex 39.382308546376024 38.41 0.0
    vertex 39.02266702535936 37.54174856236907 3.0
    vertex 39.02266702535936 37.54174856236907 0.0
  endloop
endfacet
facet normal 0.923879532511287 -0.3826834323650892 -1.0426542943889118e-31
  outer loop
    vertex 39.02266702535936 37.54174856236907 3.0
    vertex 39.382308546376024 38.41 0.0
    vertex 39.382308546376024 38.41 3.0
  endloop
endfacet
facet normal 0.9914448613738105 -0.13052619222005096 -1.0472828767612852e-31
  outer loop
    vertex 39.02266702535936 37.54174856236907 0.0
    vertex 38.900000000000006 36.61 3.0
    vertex 38.900000000000006 36.61 0.0
  endloop
endfacet
facet normal 0.9914448613738105 -0.13052619222005096 -1.0472828767612852e-31
  outer loop
    vertex 38.900000000000006 36.61 3.0
    vertex 39.02266702535936 37.54174856236907 0.0
    vertex 39.02266702535936 37.54174856236907 3.0
  endloop
endfacet
facet normal 0.9914448613738107 0.1305261922200502 -9.805408617991623e-32
  outer loop
    vertex 38.900000000000006 36.61 0.0
    vertex 39.02266702535936 35.67825143763092 3.0
    vertex 39.02266702535936 35.67825143763092 0.0
  endloop
endfacet
facet normal 0.9914448613738107 0.1305261922200502 -9.805408617991623e-32
  outer loop
    vertex 39.02266702535936 35.67825143763092 3.0
    vertex 38.900000000000006 36.61 0.0
    vertex 38.900000000000006 36.61 3.0
  endloop
endfacet
facet normal 0.923879532511287 0.3826834323650892 -8.469766075258161e-32
  outer loop
    vertex 39.02266702535936 35.67825143763092 0.0
    vertex 39.382308546376024 34.809999999999995 3.0
    vertex 39.382308546376024 34.809999999999995 0.0
  endloop
endfacet
facet normal 0.923879532511287 0.3826834323650892 -8.469766075258161e-32
  outer loop
    vertex 39.382308546376024 34.809999999999995 3.0
    vertex 39.02266702535936 35.67825143763092 0.0
    vertex 39.02266702535936 35.67825143763092 3.0
  endloop
endfacet
facet normal 0.7933533402912315 0.6087614290087255 -6.556922971446042e-32
  outer loop
    vertex 39.382308546376024 34.809999999999995 0.0
    vertex 39.95441558772844 34.06441558772843 3.0
    vertex 39.95441558772844 34.06441558772843 0.0
  endloop
endfacet
facet normal 0.7933533402912315 0.6087614290087255 -6.556922971446042e-32
  outer loop
    vertex 39.95441558772844 34.06441558772843 3.0
    vertex 39.382308546376024 34.809999999999995 0.0
    vertex 39.382308546376024 34.809999999999995 3.0
  endloop
endfacet
facet normal 0.6087614290087227 0.7933533402912338 -4.197236402957546e-32
  outer loop
    vertex 39.95441558772844 34.06441558772843 3.0
    vertex 40.70000000000001 33.49230854637602 0.0
    vertex 39.95441558772844 34.06441558772843 0.0
  endloop
endfacet
facet normal 0.6087614290087227 0.7933533402912338 -4.197236402957546e-32
  outer loop
    vertex 40.70000000000001 33.49230854637602 0.0
    vertex 39.95441558772844 34.06441558772843 3.0
    vertex 40.70000000000001 33.49230854637602 3.0
  endloop
endfacet
facet normal 0.3826834323650892 0.923879532511287 -1.5515151098685032e-32
  outer loop
    vertex 40.70000000000001 33.49230854637602 3.0
    vertex 41.568251437630934 33.13266702535935 0.0
    vertex 40.70000000000001 33.49230854637602 0.0
  endloop
endfacet
facet normal 0.3826834323650892 0.923879532511287 -1.5515151098685032e-32
  outer loop
    vertex 41.568251437630934 33.13266702535935 0.0
    vertex 40.70000000000001 33.49230854637602 3.0
    vertex 41.568251437630934 33.13266702535935 3.0
  endloop
endfacet
facet normal 0.13052619222005096 0.9914448613738105 1.1999393739580993e-32
  outer loop
    vertex 41.568251437630934 33.13266702535935 3.0
    vertex 42.50000000000001 33.01 0.0
    vertex 41.568251437630934 33.13266702535935 0.0
  endloop
endfacet
facet normal 0.13052619222005096 0.9914448613738105 1.1999393739580993e-32
  outer loop
    vertex 42.50000000000001 33.01 0.0
    vertex 41.568251437630934 33.13266702535935 3.0
    vertex 42.50000000000001 33.01 3.0
  endloop
endfacet
facet normal -0.1305261922200502 0.9914448613738107 3.8696199724430115e-32
  outer loop
    vertex 42.50000000000001 33.01 3.0
    vertex 43.43174856236909 33.13266702535935 0.0
    vertex 42.50000000000001 33.01 0.0
  endloop
endfacet
facet normal -0.1305261922200502 0.9914448613738107 3.8696199724430115e-32
  outer loop
    vertex 43.43174856236909 33.13266702535935 0.0
    vertex 42.50000000000001 33.01 3.0
    vertex 43.43174856236909 33.13266702535935 3.0
  endloop
endfacet
facet normal -0.3826834323650892 0.923879532511287 6.275592364655324e-32
  outer loop
    vertex 43.43174856236909 33.13266702535935 3.0
    vertex 44.30000000000001 33.49230854637602 0.0
    vertex 43.43174856236909 33.13266702535935 0.0
  endloop
endfacet
facet normal -0.3826834323650892 0.923879532511287 6.275592364655324e-32
  outer loop
    vertex 44.30000000000001 33.49230854637602 0.0
    vertex 43.43174856236909 33.13266702535935 3.0
    vertex 44.30000000000001 33.49230854637602 3.0
  endloop
endfacet
facet normal -0.6087614290087255 0.7933533402912315 8.253893508123148e-32
  outer loop
    vertex 44.30000000000001 33.49230854637602 3.0
    vertex 45.04558441227157 34.06441558772843 0.0
    vertex 44.30000000000001 33.49230854637602 0.0
  endloop
endfacet
facet normal -0.6087614290087255 0.7933533402912315 8.253893508123148e-32
  outer loop
    vertex 45.04558441227157 34.06441558772843 0.0
    vertex 44.30000000000001 33.49230854637602 3.0
    vertex 45.04558441227157 34.06441558772843 3.0
  endloop
endfacet
facet normal -0.7933533402912338 0.6087614290087227 9.669705449216242e-32
  outer loop
    vertex 45.61769145362398 34.81 3.0
    vertex 45.04558441227157 34.06441558772843 0.0
    vertex 45.04558441227157 34.06441558772843 3.0
  endloop
endfacet
facet normal -0.7933533402912338 0.6087614290087227 9.669705449216242e-32
  outer loop
    vertex 45.04558441227157 34.06441558772843 0.0
    vertex 45.61769145362398 34.81 3.0
    vertex 45.61769145362398 34.81 0.0
  endloop
endfacet
facet normal -0.923879532511287 0.3826834323650892 1.0426542943889118e-31
  outer loop
    vertex 45.97733297464065 35.67825143763093 3.0
    vertex 45.61769145362398 34.81 0.0
    vertex 45.61769145362398 34.81 3.0
  endloop
endfacet
facet normal -0.923879532511287 0.3826834323650892 1.0426542943889118e-31
  outer loop
    vertex 45.61769145362398 34.81 0.0
    vertex 45.97733297464065 35.67825143763093 3.0
    vertex 45.97733297464065 35.67825143763093 0.0
  endloop
endfacet
facet normal -0.9914448613738105 0.13052619222005096 1.0472828767612852e-31
  outer loop
    vertex 46.10000000000001 36.61 3.0
    vertex 45.97733297464065 35.67825143763093 0.0
    vertex 45.97733297464065 35.67825143763093 3.0
  endloop
endfacet
facet normal -0.9914448613738105 0.13052619222005096 1.0472828767612852e-31
  outer loop
    vertex 45.97733297464065 35.67825143763093 0.0
    vertex 46.10000000000001 36.61 3.0
    vertex 46.10000000000001 36.61 0.0
  endloop
endfacet
facet normal -0.9914448613738107 -0.1305261922200502 9.805408617991623e-32
  outer loop
    vertex 45.97733297464065 37.54174856236908 3.0
    vertex 46.10000000000001 36.61 0.0
    vertex 46.10000000000001 36.61 3.0
  endloop
endfacet
facet normal -0.9914448613738107 -0.1305261922200502 9.805408617991623e-32
  outer loop
    vertex 46.10000000000001 36.61 0.0
    vertex 45.97733297464065 37.54174856236908 3.0
    vertex 45.97733297464065 37.54174856236908 0.0
  endloop
endfacet
facet normal -0.923879532511287 -0.3826834323650892 8.469766075258161e-32
  outer loop
    vertex 45.61769145362398 38.410000000000004 3.0
    vertex 45.97733297464065 37.54174856236908 0.0
    vertex 45.97733297464065 37.54174856236908 3.0
  endloop
endfacet
facet normal -0.923879532511287 -0.3826834323650892 8.469766075258161e-32
  outer loop
    vertex 45.97733297464065 37.54174856236908 0.0
    vertex 45.61769145362398 38.410000000000004 3.0
    vertex 45.61769145362398 38.410000000000004 0.0
  endloop
endfacet
facet normal -0.7933533402912338 -0.6087614290087227 6.556922971446072e-32
  outer loop
    vertex 45.04558441227157 39.15558441227157 3.0
    vertex 45.61769145362398 38.410000000000004 0.0
    vertex 45.61769145362398 38.410000000000004 3.0
  endloop
endfacet
facet normal -0.7933533402912338 -0.6087614290087227 6.556922971446072e-32
  outer loop
    vertex 45.61769145362398 38.410000000000004 0.0
    vertex 45.04558441227157 39.15558441227157 3.0
    vertex 45.04558441227157 39.15558441227157 0.0
  endloop
endfacet
facet normal -0.6087614290087189 -0.7933533402912365 4.1972364029574997e-32
  outer loop
    vertex 45.04558441227157 39.15558441227157 3.0
    vertex 44.300000000000004 39.727691453623976 0.0
    vertex 45.04558441227157 39.15558441227157 0.0
  endloop
endfacet
facet normal -0.6087614290087189 -0.7933533402912365 4.1972364029574997e-32
  outer loop
    vertex 44.300000000000004 39.727691453623976 0.0
    vertex 45.04558441227157 39.15558441227157 3.0
    vertex 44.300000000000004 39.727691453623976 3.0
  endloop
endfacet
facet normal -0.3826834323650892 -0.923879532511287 1.5515151098685032e-32
  outer loop
    vertex 44.300000000000004 39.727691453623976 3.0
    vertex 43.43174856236908 40.087332974640645 0.0
    vertex 44.300000000000004 39.727691453623976 0.0
  endloop
endfacet
facet normal -0.3826834323650892 -0.923879532511287 1.5515151098685032e-32
  outer loop
    vertex 43.43174856236908 40.087332974640645 0.0
    vertex 44.300000000000004 39.727691453623976 3.0
    vertex 43.43174856236908 40.087332974640645 3.0
  endloop
endfacet
endsolid top
